# xmcd
#
# Track frame offsets: 
#        150
#        17147
#        32826
#        49116
#        64848
#        79154
#        92731
#        107046
#        121719
#        142144
#        161676
#        176332
#        189965
#        204081
#        217553
#        232924
#        244809
#        258405
#        273804
#        285583
#
# Disc length: 3995 seconds
#
# Revision: 6
# Processed by: cddbd v1.5.2PL0 Copyright (c) Steve Scherf et al.
# Submitted via: ExactAudioCopy v1.0b3
#
DISCID=080f9914
DTITLE=Louis Armstrong - It's Louis Armstrong_CD04
DYEAR=2005
DGENRE=Jazz
TTITLE0=Love, You Funny Thing
TTITLE1=The New Tiger Rag
TTITLE2=Keepin' Out Of Mischief Now
TTITLE3=Lawd, You Made The Night Too Long
TTITLE4=That's My Home
TTITLE5=Hobo, You Can't Ride This Train
TTITLE6=I Hate To Leave You Know
TTITLE7=You'll Wish You'd Never Been Born
TTITLE8=Medley  (Part II)  When You're Smiling - Saint James Infirmary
TTITLE8=Dinah
TTITLE9=Medley  (Part I)  You Rascal You - When It's Sleepy Time Down 
TTITLE9=South - Nobody's Sweetheart
TTITLE10=I've Got The World On A String
TTITLE11=I Gotta Right To Sing The Blues
TTITLE12=Hustlin' And Bustlin' For Baby
TTITLE13=Sittin' In The Dark
TTITLE14=High Society
TTITLE15=He's A Son Of The South
TTITLE16=Some Sweet Day
TTITLE17=Basin Street Blues
TTITLE18=Honey, Do!
TTITLE19=Snowball
EXTD=
EXTT0=
EXTT1=
EXTT2=
EXTT3=
EXTT4=
EXTT5=
EXTT6=
EXTT7=
EXTT8=
EXTT9=
EXTT10=
EXTT11=
EXTT12=
EXTT13=
EXTT14=
EXTT15=
EXTT16=
EXTT17=
EXTT18=
EXTT19=
PLAYORDER=
